<svg xmlns="http://www.w3.org/2000/svg" xmlns:xlink="http://www.w3.org/1999/xlink" viewBox="0 0 152 104">
  <defs>
    <polygon id="vr_smartfinanz_hks_isocv2-a" points=".2 .208 151.679 .208 151.679 102.708 .2 102.708" />
  </defs>
  <g fill="none" fill-rule="evenodd">
    <path fill="#FF6600" d="M151.67853,102.708129 L151.67853,84.6624516 L93.8962329,84.6624516 C92.3363509,92.9522581 90.9964522,99.9705806 90.4831577,102.708129 L151.67853,102.708129" />
    <polyline fill="#FF6600" points=".083 84.662 .083 102.708 60.852 102.708 56.812 84.662 .083 84.662" />
    <path fill="#0066b3" d="M29.9577346,42.1868387 L25.544735,23.5507097 L63.2585497,23.5507097 L75.7542715,78.2211613 L83.7136696,42.7806452 C87.6033754,27.2141935 89.0665981,23.5507097 110.924945,23.5507097 L126.657089,23.5507097 C126.657089,23.5507097 123.477329,37.896 119.537627,53.4725161 C118.024408,59.4105806 104.875403,58.7127742 105.545352,53.1705806 C105.612014,52.580129 106.225301,48.4033548 106.718597,45.4309677 C107.441875,41.1569032 102.445586,40.6369032 101.56232,44.8572903 C100.915702,47.8934194 98.0459191,62.9432258 95.3394571,77.0670968 L151.67853,77.0670968 L151.67853,0.207741935 L0.0866601134,0.207741935 L0.0866601134,77.0670968 L55.1058329,77.0670968 L47.2697588,42.2237419 L29.9577346,42.1868387" />
  </g>
</svg>
